HIERARCHY
ROOT Hips
{
	OFFSET -3.958830 18.904000 13.208200
	CHANNELS 6 Xposition Yposition Zposition Zrotation Yrotation Xrotation 
	JOINT LHipJoint
	{
		OFFSET 0.000000 0.000000 0.000000
		CHANNELS 3 Zrotation Yrotation Xrotation
		JOINT LeftUpLeg
		{
			OFFSET 1.800000 -1.400000 0.085000
			CHANNELS 3 Zrotation Yrotation Xrotation
			JOINT LeftLeg
			{
				OFFSET 2.215000 -6.000000 0.000000
				CHANNELS 3 Zrotation Yrotation Xrotation
				JOINT LeftFoot
				{
					OFFSET 2.500000 -6.900000 0.000000
					CHANNELS 3 Zrotation Yrotation Xrotation
					JOINT LeftToeBase
					{
						OFFSET 0.200000 -0.500000 1.950000
						CHANNELS 3 Zrotation Yrotation Xrotation
						End Site
						{
							OFFSET 0.000000 0.000000 0.000000
						}
					}
				}
			}
		}
	}
	JOINT RHipJoint
	{
		OFFSET 0.000000 0.000000 0.000000
		CHANNELS 3 Zrotation Yrotation Xrotation
		JOINT RightUpLeg
		{
			OFFSET -1.800000 -1.400000 0.085000
			CHANNELS 3 Zrotation Yrotation Xrotation
			JOINT RightLeg
			{
				OFFSET -2.215000 -6.000000 0.000000
				CHANNELS 3 Zrotation Yrotation Xrotation
				JOINT RightFoot
				{
					OFFSET -2.500000 -6.900000 0.000000
					CHANNELS 3 Zrotation Yrotation Xrotation
					JOINT RightToeBase
					{
						OFFSET -0.200000 -0.500000 1.950000
						CHANNELS 3 Zrotation Yrotation Xrotation
						End Site
						{
							OFFSET 0.000000 0.000000 0.000000
						}
					}
				}
			}
		}
	}
	JOINT LowerBack
	{
		OFFSET 0.000000 0.000000 0.000000
		CHANNELS 3 Zrotation Yrotation Xrotation
		JOINT Spine
		{
			OFFSET -0.087000 1.940000 -0.288900
			CHANNELS 3 Zrotation Yrotation Xrotation
			JOINT Spine1
			{
				OFFSET 0.000000 1.950000 0.060000
				CHANNELS 3 Zrotation Yrotation Xrotation
				JOINT Neck
				{
					OFFSET 0.000000 0.000000 0.000000
					CHANNELS 3 Zrotation Yrotation Xrotation
					JOINT Neck1
					{
						OFFSET 0.000000 1.600000 0.340000
						CHANNELS 3 Zrotation Yrotation Xrotation
						JOINT Head
						{
							OFFSET 0.000000 1.667000 -0.240000
							CHANNELS 3 Zrotation Yrotation Xrotation
							End Site
							{
								OFFSET 0.000000 0.000000 0.000000
							}
						}
					}
				}
				JOINT LeftShoulder
				{
					OFFSET 0.000000 0.000000 0.000000
					CHANNELS 3 Zrotation Yrotation Xrotation
					JOINT LeftArm
					{
						OFFSET 2.700000 1.550000 -0.730000
						CHANNELS 3 Zrotation Yrotation Xrotation
						JOINT LeftForeArm
						{
							OFFSET 5.450000 0.000000 0.000000
							CHANNELS 3 Zrotation Yrotation Xrotation
							JOINT LeftHand
							{
								OFFSET 3.450000 0.000000 0.000000
								CHANNELS 3 Zrotation Yrotation Xrotation
								JOINT LeftHandIndex1
								{
									OFFSET 0.750000 0.000000 0.000000
									CHANNELS 3 Zrotation Yrotation Xrotation
									End Site
									{
										OFFSET 0.000000 0.000000 0.000000
									}
								}
							}
						}
					}
				}
				JOINT RightShoulder
				{
					OFFSET 0.000000 0.000000 0.000000
					CHANNELS 3 Zrotation Yrotation Xrotation
					JOINT RightArm
					{
						OFFSET -2.700000 1.550000 -0.730000
						CHANNELS 3 Zrotation Yrotation Xrotation
						JOINT RightForeArm
						{
							OFFSET -5.450000 0.000000 0.000000
							CHANNELS 3 Zrotation Yrotation Xrotation
							JOINT RightHand
							{
								OFFSET -3.450000 0.000000 0.000000
								CHANNELS 3 Zrotation Yrotation Xrotation
								JOINT RightHandIndex1
								{
									OFFSET -0.750000 0.000000 0.000000
									CHANNELS 3 Zrotation Yrotation Xrotation
									End Site
									{
										OFFSET 0.000000 0.000000 0.000000
									}
								}
							}
						}
					}
				}
			}
		}
	}
}
MOTION
Frames: 4
Frame Time: 0.016667
-1.240900 13.243980 -3.666310 -69.325333 22.508706 -72.078217 -15.664438 13.747462 4.243632 -0.768430 -7.348306 -27.882586 -6.403956 11.315599 44.677187 0.233795 8.375061 1.681880 0.133920 -0.116410 -0.147660 17.871353 -9.043852 3.466108 2.141237 9.434011 -29.520439 -20.871092 3.171042 64.165598 -1.587115 -9.259652 1.351966 -0.017250 0.493470 0.028330 -2.278335 -5.829524 -8.458997 13.320379 -5.832397 57.597230 3.508572 0.557505 13.401478 5.367224 -0.251822 -12.969021 -6.589196 -1.162561 52.191868 21.198290 -13.546540 -12.241850 -17.511492 -22.344580 7.107741 -37.317582 -9.288649 -0.304322 6.608883 0.983510 -1.037511 -3.754655 2.634890 0.717390 -0.045130 -0.037960 0.240940 6.906447 24.216726 10.078112 8.084621 -14.560140 -23.130090 -112.394442 17.594405 -39.920606 2.074474 -1.804910 -0.370030 0.547570 0.212550 -0.026410 
-1.218310 13.276630 -3.691470 -68.335845 22.969041 -72.964704 -15.687666 13.874057 4.179563 -1.477101 -7.064157 -26.634428 -6.228749 11.306565 44.177952 0.279430 8.232791 1.745720 0.205130 -0.026740 -0.103040 17.823728 -9.058041 3.418909 -1.243738 9.844885 -29.526348 -15.648693 -0.428312 69.063850 -1.704338 -9.759915 1.192369 0.012540 0.457420 0.034490 -2.176231 -6.028459 -8.420229 12.170352 -4.938576 58.678331 3.546992 0.452182 14.561432 5.549434 -0.500599 -13.211758 -7.448337 -0.887111 52.601020 21.459760 -13.472420 -13.396040 -18.090845 -23.504093 7.550356 -35.898676 -9.045659 -0.258735 6.376844 1.372152 -0.974715 -3.696934 2.665409 0.712150 -0.079290 0.006410 0.276730 7.055773 25.748925 10.354696 6.109998 -14.608470 -23.256007 -113.360239 16.700457 -39.759458 2.118218 -1.870153 -0.325920 0.540810 0.149030 -0.005770 
-1.208180 13.275160 -3.720550 -66.205963 23.265886 -72.459911 -15.692389 13.689926 4.070346 -3.667747 -6.983625 -26.186237 -5.440741 10.902816 43.064341 0.228354 7.925432 1.872035 0.179050 -0.061620 -0.129090 17.846798 -8.844665 3.646876 -7.834868 11.004286 -32.080465 -4.329408 -8.826939 71.895787 -1.753625 -10.471122 0.957281 0.005610 0.498990 0.031040 -2.216589 -5.876143 -8.541614 11.462829 -3.920580 59.231991 2.642987 0.674916 15.062368 5.713691 -0.849311 -13.361685 -7.960010 -0.450386 51.681241 21.855830 -13.352720 -13.093130 -18.926777 -24.077167 7.761312 -34.345026 -8.342111 -0.329228 6.378147 1.183429 -1.017501 -3.720911 2.648346 0.701550 -0.058250 -0.023830 0.276730 7.458644 26.890513 10.494655 2.492225 -13.553758 -22.478919 -115.230135 15.381339 -38.813115 2.141814 -1.896057 -0.347240 0.558960 0.171990 -0.000830 
-1.173440 13.279180 -3.726740 -62.804656 22.206578 -71.839107 -15.700818 13.632206 3.783863 -4.678032 -5.831753 -24.981034 -5.359973 10.453238 39.731430 0.130954 7.283118 2.089289 0.170080 -0.053940 -0.172850 17.852038 -8.570984 4.012042 -12.029458 12.465916 -32.243176 7.296343 -15.641625 68.265206 -1.819779 -10.973148 0.796627 0.011380 0.521020 0.039280 -2.234208 -5.787002 -8.625730 10.933077 -2.585108 59.847739 1.476450 1.702049 16.059350 6.357385 -1.726764 -13.346410 -9.428107 0.152465 50.740214 21.657180 -13.458140 -12.753560 -20.115339 -23.787709 7.375733 -32.818419 -7.923830 -0.431908 6.070757 1.176542 -1.028051 -3.749717 2.671837 0.657260 -0.041760 -0.047920 0.283200 7.202789 28.111138 10.787649 -1.192032 -11.896898 -21.557861 -118.033209 12.823430 -36.784337 2.187502 -1.975787 -0.328580 0.546420 0.187290 0.025540 
